<?xml version="1.0" encoding="UTF-8" standalone="no"?>
<!DOCTYPE svg PUBLIC "-//W3C//DTD SVG 1.1//EN" "http://www.w3.org/Graphics/SVG/1.1/DTD/svg11.dtd">
<svg width="100%" height="100%" viewBox="0 0 1499 269" version="1.1" xmlns="http://www.w3.org/2000/svg" xmlns:xlink="http://www.w3.org/1999/xlink" xml:space="preserve" xmlns:serif="http://www.serif.com/" style="fill-rule:evenodd;clip-rule:evenodd;stroke-linejoin:round;stroke-miterlimit:2;">
    <g transform="matrix(1,0,0,1,-247.549,-391.868)">
        <g transform="matrix(23.0347,0,0,23.0347,-14594.4,-9449.25)">
            <g transform="matrix(12,0,0,12,680.488,438.293)">
                <path d="M1.221,-0.875C1.221,-0.894 1.211,-0.91 1.192,-0.922C1.089,-0.832 0.996,-0.742 0.912,-0.652C0.819,-0.551 0.733,-0.455 0.658,-0.362C0.619,-0.314 0.591,-0.277 0.572,-0.252C0.539,-0.209 0.506,-0.176 0.475,-0.153C0.47,-0.17 0.466,-0.18 0.465,-0.182C0.465,-0.192 0.469,-0.232 0.476,-0.301C0.488,-0.419 0.497,-0.496 0.504,-0.531C0.515,-0.586 0.523,-0.623 0.528,-0.644C0.537,-0.681 0.541,-0.702 0.541,-0.706C0.541,-0.715 0.537,-0.728 0.527,-0.744L0.504,-0.744L0.001,-0.037L0.001,0.005L0.025,0.011L0.449,-0.579L0.458,-0.568L0.425,-0.311C0.415,-0.239 0.41,-0.197 0.408,-0.182L0.408,-0.071L0.448,-0.071C0.471,-0.071 0.506,-0.096 0.551,-0.147C0.557,-0.155 0.586,-0.191 0.637,-0.256C0.688,-0.321 0.732,-0.376 0.771,-0.421C0.779,-0.431 0.807,-0.462 0.857,-0.516C0.891,-0.553 0.918,-0.585 0.938,-0.614C0.983,-0.676 1.04,-0.728 1.109,-0.77L1.109,-0.748C1.088,-0.684 1.072,-0.636 1.062,-0.603C0.964,-0.301 0.916,-0.121 0.916,-0.062C0.916,-0.046 0.926,-0.033 0.946,-0.025C0.962,-0.084 0.977,-0.125 0.99,-0.147C0.991,-0.176 1.003,-0.232 1.026,-0.316C1.047,-0.39 1.064,-0.446 1.079,-0.485C1.174,-0.737 1.221,-0.866 1.221,-0.875Z" style="fill:white;fill-rule:nonzero;"/>
            </g>
            <g transform="matrix(12,0,0,12,694.168,438.293)">
                <path d="M0.132,-0.1C0.138,-0.173 0.139,-0.216 0.138,-0.229C0.139,-0.229 0.139,-0.227 0.139,-0.222C0.139,-0.234 0.133,-0.242 0.122,-0.247C0.092,-0.239 0.076,-0.174 0.076,-0.051C0.076,-0.029 0.079,-0.011 0.084,0.005C0.096,0.005 0.11,0 0.126,-0.009C0.126,-0.028 0.129,-0.059 0.132,-0.1ZM0.178,-0.474C0.152,-0.492 0.133,-0.501 0.122,-0.501C0.111,-0.501 0.1,-0.489 0.09,-0.466C0.114,-0.441 0.13,-0.428 0.138,-0.425C0.165,-0.443 0.178,-0.459 0.178,-0.472L0.178,-0.474Z" style="fill:white;fill-rule:nonzero;"/>
            </g>
            <g transform="matrix(12,0,0,12,696.652,438.293)">
                <path d="M0.483,-0.009C0.427,-0.018 0.388,-0.044 0.367,-0.086C0.377,-0.101 0.402,-0.117 0.441,-0.133C0.486,-0.151 0.513,-0.164 0.522,-0.17C0.52,-0.2 0.513,-0.218 0.502,-0.223L0.481,-0.221C0.441,-0.203 0.412,-0.189 0.394,-0.18C0.34,-0.155 0.279,-0.132 0.21,-0.109C0.169,-0.096 0.142,-0.084 0.126,-0.077C0.13,-0.077 0.125,-0.078 0.109,-0.08L0.103,-0.134C0.102,-0.141 0.105,-0.16 0.112,-0.194C0.119,-0.232 0.123,-0.255 0.123,-0.262C0.124,-0.295 0.125,-0.328 0.124,-0.36C0.142,-0.565 0.152,-0.689 0.154,-0.734C0.158,-0.818 0.159,-0.863 0.159,-0.868C0.156,-0.887 0.147,-0.9 0.132,-0.905C0.118,-0.895 0.11,-0.885 0.109,-0.875C0.106,-0.852 0.104,-0.83 0.103,-0.807C0.097,-0.692 0.094,-0.613 0.091,-0.569C0.086,-0.474 0.077,-0.385 0.065,-0.3L0.046,-0.162C0.036,-0.088 0.032,-0.046 0.033,-0.037C0.036,-0.013 0.05,-0.001 0.074,-0.001C0.078,-0.001 0.081,-0.001 0.085,-0.002C0.11,-0.009 0.135,-0.018 0.159,-0.027C0.214,-0.049 0.251,-0.064 0.27,-0.071C0.289,-0.049 0.303,-0.033 0.313,-0.021L0.365,0.02C0.39,0.04 0.408,0.05 0.418,0.049C0.431,0.048 0.445,0.04 0.46,0.029C0.477,0.016 0.485,0.003 0.483,-0.009Z" style="fill:white;fill-rule:nonzero;"/>
            </g>
            <g transform="matrix(12,0,0,12,703.372,438.293)">
                <path d="M0.299,-0.221C0.292,-0.214 0.265,-0.191 0.216,-0.172C0.167,-0.154 0.137,-0.148 0.126,-0.148L0.095,-0.148C0.089,-0.152 0.086,-0.165 0.086,-0.174C0.086,-0.198 0.102,-0.218 0.133,-0.232C0.157,-0.243 0.183,-0.249 0.212,-0.249C0.252,-0.249 0.281,-0.239 0.299,-0.221ZM0.501,-0.026C0.495,-0.036 0.486,-0.045 0.473,-0.052C0.433,-0.058 0.413,-0.061 0.415,-0.061L0.26,-0.061C0.247,-0.061 0.214,-0.06 0.183,-0.068C0.148,-0.077 0.12,-0.085 0.116,-0.092C0.123,-0.098 0.13,-0.097 0.13,-0.101C0.153,-0.099 0.211,-0.119 0.269,-0.139C0.331,-0.161 0.362,-0.181 0.362,-0.199C0.362,-0.232 0.349,-0.258 0.323,-0.277C0.297,-0.296 0.262,-0.306 0.218,-0.306C0.166,-0.306 0.123,-0.294 0.087,-0.272C0.045,-0.245 0.024,-0.207 0.024,-0.158C0.024,-0.135 0.028,-0.109 0.038,-0.082C0.046,-0.057 0.083,-0.038 0.147,-0.022C0.196,-0.011 0.241,-0.005 0.281,-0.005L0.453,-0.005C0.473,-0.005 0.489,-0.012 0.501,-0.026Z" style="fill:white;fill-rule:nonzero;"/>
            </g>
        </g>
        <g transform="matrix(13.3106,0,0,13.3106,-3020.31,-2147.74)">
            <g transform="matrix(12,0,0,12,244.39,208.537)">
                <path d="M0.829,-0.013C0.829,-0.006 0.836,0 0.842,0C0.849,0 0.854,-0.006 0.854,-0.013L0.854,-0.292C0.854,-0.401 0.767,-0.49 0.659,-0.49C0.574,-0.49 0.502,-0.437 0.474,-0.362C0.446,-0.437 0.374,-0.49 0.29,-0.49C0.216,-0.49 0.153,-0.449 0.119,-0.388L0.119,-0.477C0.119,-0.485 0.113,-0.49 0.107,-0.49C0.099,-0.49 0.095,-0.485 0.095,-0.477L0.095,-0.316C0.094,-0.308 0.093,-0.3 0.093,-0.292L0.093,-0.013C0.093,-0.006 0.098,-0.001 0.104,0L0.107,0C0.109,0 0.112,-0.001 0.114,-0.003C0.115,-0.003 0.115,-0.004 0.116,-0.004C0.116,-0.005 0.116,-0.005 0.117,-0.006C0.118,-0.008 0.119,-0.01 0.119,-0.013L0.119,-0.299C0.122,-0.391 0.198,-0.465 0.29,-0.465C0.385,-0.465 0.462,-0.388 0.462,-0.292L0.462,-0.013C0.462,-0.006 0.467,0 0.474,0C0.478,0 0.481,-0.001 0.484,-0.004C0.484,-0.005 0.484,-0.005 0.485,-0.006L0.487,-0.013L0.487,-0.292L0.487,-0.299C0.49,-0.391 0.566,-0.465 0.659,-0.465C0.752,-0.465 0.829,-0.388 0.829,-0.292L0.829,-0.013Z" style="fill:white;fill-rule:nonzero;"/>
            </g>
            <g transform="matrix(12,0,0,12,255.802,208.537)">
                <path d="M0.07,-0.245C0.07,-0.111 0.173,0 0.301,0C0.429,0 0.533,-0.111 0.533,-0.245C0.533,-0.38 0.429,-0.49 0.301,-0.49C0.173,-0.49 0.07,-0.38 0.07,-0.245ZM0.095,-0.245C0.095,-0.367 0.188,-0.465 0.301,-0.465C0.414,-0.465 0.508,-0.367 0.508,-0.245C0.508,-0.124 0.414,-0.025 0.301,-0.025C0.188,-0.025 0.095,-0.124 0.095,-0.245Z" style="fill:white;fill-rule:nonzero;"/>
            </g>
            <g transform="matrix(12,0,0,12,263.302,208.537)">
                <path d="M0.534,-0.013L0.534,-0.234L0.534,-0.246L0.534,-0.256L0.534,-0.685C0.534,-0.692 0.529,-0.7 0.521,-0.7C0.515,-0.7 0.509,-0.692 0.509,-0.685L0.509,-0.355C0.47,-0.435 0.39,-0.49 0.298,-0.49C0.166,-0.49 0.06,-0.38 0.06,-0.246C0.06,-0.111 0.166,0 0.298,0C0.39,0 0.47,-0.055 0.509,-0.134L0.509,-0.013C0.509,-0.006 0.515,0 0.521,0C0.529,0 0.534,-0.006 0.534,-0.013ZM0.509,-0.246C0.509,-0.124 0.413,-0.025 0.298,-0.025C0.181,-0.025 0.085,-0.124 0.085,-0.246C0.085,-0.367 0.181,-0.465 0.298,-0.465C0.41,-0.465 0.505,-0.372 0.509,-0.255L0.509,-0.246Z" style="fill:white;fill-rule:nonzero;"/>
            </g>
            <g transform="matrix(12,0,0,12,271.042,208.537)">
                <path d="M0.296,0C0.378,0 0.451,-0.046 0.493,-0.111C0.497,-0.117 0.495,-0.125 0.49,-0.128C0.483,-0.131 0.476,-0.131 0.472,-0.125C0.435,-0.065 0.37,-0.025 0.296,-0.025C0.178,-0.026 0.083,-0.125 0.083,-0.245L0.083,-0.248L0.519,-0.248C0.525,-0.248 0.53,-0.254 0.531,-0.26L0.531,-0.261L0.531,-0.263L0.531,-0.264C0.522,-0.391 0.421,-0.49 0.296,-0.49C0.165,-0.49 0.06,-0.381 0.058,-0.245C0.06,-0.111 0.165,-0.002 0.296,0ZM0.296,-0.464C0.403,-0.464 0.493,-0.381 0.506,-0.272L0.084,-0.272C0.097,-0.381 0.187,-0.464 0.296,-0.464Z" style="fill:white;fill-rule:nonzero;"/>
            </g>
            <g transform="matrix(12,0,0,12,278.35,208.537)">
                <path d="M0.1,-0.013C0.1,-0.006 0.105,0 0.113,0C0.12,0 0.125,-0.006 0.125,-0.013L0.125,-0.687C0.125,-0.694 0.12,-0.7 0.113,-0.7C0.105,-0.7 0.1,-0.694 0.1,-0.687L0.1,-0.013Z" style="fill:white;fill-rule:nonzero;"/>
            </g>
            <g transform="matrix(12,0,0,12,281.338,208.537)">
                <path d="M0.251,0C0.356,0 0.439,-0.062 0.439,-0.141C0.439,-0.236 0.349,-0.257 0.269,-0.275C0.19,-0.294 0.122,-0.31 0.122,-0.381C0.122,-0.433 0.18,-0.474 0.251,-0.474C0.337,-0.474 0.382,-0.424 0.383,-0.423C0.387,-0.418 0.395,-0.417 0.401,-0.422C0.406,-0.427 0.407,-0.435 0.402,-0.44C0.4,-0.443 0.349,-0.5 0.251,-0.5C0.166,-0.5 0.096,-0.447 0.096,-0.381C0.096,-0.289 0.185,-0.269 0.263,-0.25C0.34,-0.232 0.413,-0.216 0.413,-0.141C0.413,-0.077 0.34,-0.025 0.251,-0.025C0.157,-0.025 0.085,-0.089 0.084,-0.09C0.079,-0.095 0.071,-0.094 0.066,-0.089C0.061,-0.084 0.062,-0.076 0.067,-0.071C0.07,-0.068 0.147,0 0.251,0Z" style="fill:white;fill-rule:nonzero;"/>
            </g>
            <g transform="matrix(12,0,0,12,290.842,208.537)">
                <path d="M0.093,-0.013C0.093,-0.006 0.098,0 0.106,0C0.112,0 0.118,-0.006 0.118,-0.013L0.118,-0.134C0.157,-0.055 0.237,0 0.329,0C0.461,0 0.567,-0.111 0.567,-0.246C0.567,-0.38 0.461,-0.49 0.329,-0.49C0.237,-0.49 0.157,-0.435 0.118,-0.355L0.118,-0.685C0.118,-0.692 0.112,-0.7 0.106,-0.7C0.098,-0.7 0.093,-0.692 0.093,-0.685L0.093,-0.013ZM0.118,-0.255C0.122,-0.372 0.217,-0.465 0.329,-0.465C0.446,-0.465 0.542,-0.367 0.542,-0.246C0.542,-0.124 0.446,-0.025 0.329,-0.025C0.214,-0.025 0.118,-0.124 0.118,-0.246L0.118,-0.255Z" style="fill:white;fill-rule:nonzero;"/>
            </g>
            <g transform="matrix(12,0,0,12,298.462,208.537)">
                <path d="M0.052,-0.198C0.052,-0.09 0.14,-0.002 0.249,-0.002C0.322,-0.002 0.386,-0.042 0.418,-0.102L0.418,-0.028C0.418,0.085 0.327,0.177 0.213,0.177C0.18,0.177 0.151,0.169 0.123,0.155C0.118,0.153 0.11,0.155 0.108,0.161C0.104,0.168 0.106,0.175 0.113,0.178C0.143,0.193 0.177,0.202 0.213,0.202C0.341,0.202 0.443,0.098 0.443,-0.028L0.443,-0.477C0.443,-0.48 0.442,-0.483 0.44,-0.485C0.44,-0.485 0.44,-0.486 0.439,-0.486L0.436,-0.489C0.435,-0.489 0.434,-0.49 0.433,-0.49L0.431,-0.49C0.428,-0.49 0.426,-0.489 0.424,-0.488L0.421,-0.485C0.42,-0.485 0.42,-0.484 0.42,-0.484C0.419,-0.482 0.418,-0.48 0.418,-0.479L0.418,-0.191C0.414,-0.1 0.34,-0.027 0.249,-0.027C0.154,-0.027 0.077,-0.104 0.077,-0.198L0.077,-0.477C0.077,-0.484 0.071,-0.49 0.065,-0.49C0.057,-0.49 0.052,-0.484 0.052,-0.477L0.052,-0.198Z" style="fill:white;fill-rule:nonzero;"/>
            </g>
        </g>
    </g>
</svg>
