<?xml version="1.0" encoding="UTF-8" standalone="no"?>
<!DOCTYPE svg PUBLIC "-//W3C//DTD SVG 1.1//EN" "http://www.w3.org/Graphics/SVG/1.1/DTD/svg11.dtd">
<svg width="100%" height="100%" viewBox="0 0 128 128" version="1.1" xmlns="http://www.w3.org/2000/svg" xmlns:xlink="http://www.w3.org/1999/xlink" xml:space="preserve" xmlns:serif="http://www.serif.com/" style="fill-rule:evenodd;clip-rule:evenodd;stroke-linejoin:round;stroke-miterlimit:2;">
    <g transform="matrix(0.251737,0,0,0.251737,9.25174,5.9995)">
        <g transform="matrix(0.361134,0,0,0.366947,-126.314,-137.97)">
            <ellipse cx="946.5" cy="966" rx="599.5" ry="590" style="fill:rgb(247,236,30);"/>
        </g>
        <g transform="matrix(0.742305,0,0,0.742305,55.9686,55.4209)">
            <path d="M217.586,365.522C216.771,365.522 215.969,365.499 215.168,365.461L215.166,365.461C214.656,365.5 214.121,365.522 213.587,365.522C194.839,365.522 182.805,357.016 171.169,348.789C163.134,343.111 155.552,337.752 146.618,336.264C142.259,335.542 137.92,335.176 133.726,335.176C126.172,335.176 120.213,336.342 115.862,337.193C113.218,337.71 110.937,338.155 109.204,338.155C107.393,338.155 105.43,337.763 104.578,334.849C103.836,332.324 103.3,329.879 102.785,327.514C101.456,321.426 100.512,317.683 97.96,317.291C68.225,312.698 59.714,306.435 57.816,301.991C57.547,301.356 57.395,300.719 57.358,300.089C57.262,298.382 58.471,296.874 60.158,296.599C105.87,289.071 126.368,242.352 127.219,240.368C127.242,240.313 127.267,240.26 127.292,240.205C130.09,234.536 130.638,229.614 128.925,225.58C125.789,218.187 115.558,214.938 108.786,212.79C107.129,212.266 105.558,211.77 104.319,211.28C90.805,205.938 89.68,200.454 90.211,197.659C91.117,192.897 97.481,189.578 102.629,189.578C104.04,189.578 105.283,189.828 106.328,190.316C112.407,193.164 117.886,194.607 122.613,194.607C129.145,194.607 131.996,191.862 132.345,191.502C132.179,188.408 131.973,185.177 131.762,181.843C130.401,160.231 128.714,133.378 135.551,118.05C156.043,72.104 199.498,68.534 212.328,68.534C212.657,68.534 217.953,68.478 217.953,68.478L218.713,68.474C231.573,68.474 275.123,72.051 295.626,118.022C302.465,133.358 300.773,160.235 299.41,181.83L299.353,182.769C299.164,185.776 298.982,188.699 298.829,191.497C299.156,191.83 301.778,194.355 307.7,194.582L307.707,194.582C312.207,194.41 317.379,192.975 323.055,190.316C324.719,189.539 326.566,189.375 327.824,189.375C329.745,189.375 331.692,189.747 333.309,190.422L333.407,190.462C337.998,192.089 341.006,195.307 341.07,198.669C341.13,201.836 338.713,206.596 326.855,211.28C325.626,211.763 324.055,212.262 322.392,212.79C315.612,214.941 305.385,218.187 302.25,225.579C300.536,229.611 301.085,234.529 303.882,240.202C303.907,240.257 303.935,240.31 303.956,240.368C304.807,242.35 325.287,289.056 371.019,296.592C372.707,296.871 373.913,298.377 373.82,300.085C373.782,300.726 373.626,301.371 373.353,301.998C371.466,306.41 362.962,312.665 333.216,317.261C330.786,317.634 329.844,320.801 328.394,327.441C327.867,329.858 327.333,332.231 326.598,334.728C325.964,336.894 324.614,337.908 322.343,337.908L321.973,337.908C320.398,337.908 318.157,337.626 315.317,337.068C310.281,336.083 304.635,335.176 297.451,335.176C293.256,335.176 288.915,335.542 284.553,336.264C275.629,337.752 268.052,343.101 260.032,348.77C248.372,357.016 236.34,365.522 217.586,365.522Z" style="fill:white;fill-rule:nonzero;"/>
            <path d="M218.713,65.125L218.7,65.125C218.421,65.125 218.159,65.125 217.91,65.131C217.91,65.131 212.73,65.182 212.318,65.182C198.987,65.182 153.805,68.896 132.489,116.687C125.32,132.765 127.039,160.072 128.417,182.015C128.578,184.603 128.752,187.289 128.899,189.884C127.797,190.495 125.783,191.255 122.613,191.255C118.382,191.255 113.381,189.919 107.751,187.28C106.256,186.58 104.533,186.23 102.629,186.23C96.035,186.23 88.148,190.568 86.92,197.034C86.034,201.69 88.118,208.482 103.086,214.394C104.437,214.928 106.061,215.442 107.776,215.984C113.959,217.948 123.306,220.914 125.843,226.889C127.156,229.984 126.632,233.968 124.288,238.726C124.237,238.834 124.185,238.94 124.139,239.051C123.316,240.965 103.534,286.061 59.614,293.291C56.237,293.848 53.824,296.861 54.011,300.278C54.069,301.294 54.31,302.306 54.726,303.288C58.022,310.994 71.929,316.641 97.246,320.57C98.092,321.715 98.971,325.757 99.51,328.221C100.039,330.651 100.585,333.157 101.363,335.801C102.126,338.4 104.108,341.507 109.204,341.507C111.262,341.507 113.691,341.032 116.502,340.48C120.72,339.656 126.496,338.528 133.726,338.528C137.736,338.528 141.892,338.876 146.077,339.57C154.246,340.931 161.188,345.838 169.225,351.519C180.736,359.658 193.772,368.872 213.587,368.872C214.131,368.872 214.679,368.856 215.22,368.816C215.863,368.844 216.698,368.872 217.586,368.872C237.407,368.872 250.441,359.657 261.944,351.522C269.999,345.833 276.936,340.928 285.105,339.57C289.283,338.876 293.44,338.528 297.451,338.528C304.349,338.528 309.807,339.405 314.675,340.356C317.725,340.953 320.18,341.257 321.973,341.257L322.161,341.26L322.343,341.26C326.107,341.26 328.762,339.271 329.816,335.662C330.579,333.072 331.126,330.631 331.667,328.159C332.203,325.703 333.08,321.678 333.923,320.541C359.247,316.609 373.15,310.971 376.439,303.298C376.862,302.316 377.105,301.296 377.163,300.271C377.353,296.852 374.938,293.843 371.563,293.288C327.623,286.046 307.858,240.96 307.037,239.048C306.99,238.938 306.94,238.828 306.886,238.722C304.54,233.965 304.021,229.984 305.333,226.889C307.868,220.914 317.211,217.948 323.395,215.988C325.125,215.439 326.751,214.921 328.088,214.394C339.042,210.068 344.537,204.755 344.421,198.603C344.326,193.771 340.563,189.46 334.581,187.323L334.563,187.317C332.551,186.482 330.163,186.026 327.824,186.026C326.225,186.026 323.853,186.244 321.637,187.28C316.427,189.722 311.744,191.049 307.707,191.23C305.03,191.105 303.278,190.43 302.279,189.88C302.406,187.653 302.548,185.361 302.699,182.966L302.755,182.035C304.141,160.077 305.861,132.746 298.685,116.657C277.36,68.844 232.082,65.125 218.713,65.125ZM218.713,71.825C230.886,71.827 272.81,75.093 292.568,119.387C299.071,133.969 297.408,160.391 296.069,181.619C295.857,184.985 295.651,188.247 295.484,191.368L295.411,192.706L296.308,193.703C296.666,194.106 300.05,197.639 307.569,197.931L307.695,197.934L307.818,197.931C312.789,197.744 318.392,196.202 324.478,193.35C325.371,192.93 326.563,192.726 327.824,192.726C329.264,192.726 330.79,192.996 332.05,193.527L332.239,193.603C335.427,194.72 337.683,196.83 337.721,198.734C337.74,199.817 336.93,203.697 325.624,208.162C324.52,208.6 323.063,209.061 321.378,209.593C314.021,211.932 302.906,215.455 299.164,224.266C297.056,229.239 297.63,235.098 300.876,241.685C302.213,244.801 323.209,292.112 370.473,299.899C370.46,300.118 370.407,300.367 370.279,300.656C369.476,302.543 364.384,309.057 332.705,313.947C327.746,314.712 326.53,320.265 325.12,326.728C324.617,329.038 324.095,331.369 323.384,333.784C323.169,334.514 323.128,334.557 322.343,334.557L321.973,334.557C320.568,334.557 318.432,334.265 315.959,333.781C311.469,332.903 305.312,331.827 297.451,331.827C293.064,331.827 288.54,332.208 284.007,332.96C274.313,334.574 266.426,340.152 258.073,346.052C246.861,353.981 235.272,362.173 217.586,362.173C216.819,362.173 216.062,362.148 215.306,362.112L215.107,362.102L214.906,362.12C214.472,362.156 214.035,362.173 213.587,362.173C195.905,362.173 184.311,353.981 173.101,346.055C164.751,340.152 156.862,334.574 147.17,332.96C142.635,332.208 138.114,331.827 133.726,331.827C125.867,331.827 119.71,333.024 115.217,333.903C112.745,334.389 110.606,334.804 109.204,334.804C108.058,334.804 108.034,334.738 107.792,333.91C107.082,331.493 106.561,329.1 106.057,326.792C104.646,320.33 103.425,314.743 98.471,313.979C66.79,309.087 61.701,302.557 60.896,300.674C60.769,300.382 60.716,300.127 60.704,299.905C107.965,292.118 128.961,244.813 130.298,241.688C133.544,235.098 134.121,229.243 132.011,224.273C128.272,215.459 117.156,211.932 109.798,209.593C108.112,209.063 106.656,208.6 105.551,208.162C95.998,204.39 93.064,200.59 93.503,198.286C94.009,195.63 98.612,192.93 102.629,192.93C103.533,192.93 104.322,193.074 104.908,193.35C111.433,196.403 117.393,197.957 122.613,197.957C130.828,197.957 134.486,194.134 134.874,193.701L135.765,192.706L135.692,191.372C135.525,188.257 135.32,184.996 135.107,181.632C133.77,160.404 132.107,134 138.611,119.415C158.292,75.284 200.011,71.883 212.328,71.883C212.632,71.883 217.985,71.83 217.985,71.83C218.215,71.827 218.456,71.825 218.713,71.825Z" style="fill:rgb(3,5,5);fill-rule:nonzero;"/>
        </g>
    </g>
</svg>
