<?xml version="1.0" encoding="UTF-8" standalone="no"?>
<!DOCTYPE svg PUBLIC "-//W3C//DTD SVG 1.1//EN" "http://www.w3.org/Graphics/SVG/1.1/DTD/svg11.dtd">
<svg width="100%" height="100%" viewBox="0 0 1920 400" version="1.1" xmlns="http://www.w3.org/2000/svg" xmlns:xlink="http://www.w3.org/1999/xlink" xml:space="preserve" xmlns:serif="http://www.serif.com/" style="fill-rule:evenodd;clip-rule:evenodd;stroke-linejoin:round;stroke-miterlimit:2;">
    <g transform="matrix(28.7224,0,0,28.7224,-18481,-12238.4)">
        <g transform="matrix(12,0,0,12,680.488,438.293)">
            <path d="M1.221,-0.875C1.221,-0.894 1.211,-0.91 1.192,-0.922C1.089,-0.832 0.996,-0.742 0.912,-0.652C0.819,-0.551 0.733,-0.455 0.658,-0.362C0.619,-0.314 0.591,-0.277 0.572,-0.252C0.539,-0.209 0.506,-0.176 0.475,-0.153C0.47,-0.17 0.466,-0.18 0.465,-0.182C0.465,-0.192 0.469,-0.232 0.476,-0.301C0.488,-0.419 0.497,-0.496 0.504,-0.531C0.515,-0.586 0.523,-0.623 0.528,-0.644C0.537,-0.681 0.541,-0.702 0.541,-0.706C0.541,-0.715 0.537,-0.728 0.527,-0.744L0.504,-0.744L0.001,-0.037L0.001,0.005L0.025,0.011L0.449,-0.579L0.458,-0.568L0.425,-0.311C0.415,-0.239 0.41,-0.197 0.408,-0.182L0.408,-0.071L0.448,-0.071C0.471,-0.071 0.506,-0.096 0.551,-0.147C0.557,-0.155 0.586,-0.191 0.637,-0.256C0.688,-0.321 0.732,-0.376 0.771,-0.421C0.779,-0.431 0.807,-0.462 0.857,-0.516C0.891,-0.553 0.918,-0.585 0.938,-0.614C0.983,-0.676 1.04,-0.728 1.109,-0.77L1.109,-0.748C1.088,-0.684 1.072,-0.636 1.062,-0.603C0.964,-0.301 0.916,-0.121 0.916,-0.062C0.916,-0.046 0.926,-0.033 0.946,-0.025C0.962,-0.084 0.977,-0.125 0.99,-0.147C0.991,-0.176 1.003,-0.232 1.026,-0.316C1.047,-0.39 1.064,-0.446 1.079,-0.485C1.174,-0.737 1.221,-0.866 1.221,-0.875Z" style="fill-rule:nonzero;"/>
        </g>
        <g transform="matrix(12,0,0,12,694.168,438.293)">
            <path d="M0.132,-0.1C0.138,-0.173 0.139,-0.216 0.138,-0.229C0.139,-0.229 0.139,-0.227 0.139,-0.222C0.139,-0.234 0.133,-0.242 0.122,-0.247C0.092,-0.239 0.076,-0.174 0.076,-0.051C0.076,-0.029 0.079,-0.011 0.084,0.005C0.096,0.005 0.11,-0 0.126,-0.009C0.126,-0.028 0.129,-0.059 0.132,-0.1ZM0.178,-0.474C0.152,-0.492 0.133,-0.501 0.122,-0.501C0.111,-0.501 0.1,-0.489 0.09,-0.466C0.114,-0.441 0.13,-0.428 0.138,-0.425C0.165,-0.443 0.178,-0.459 0.178,-0.472L0.178,-0.474Z" style="fill-rule:nonzero;"/>
        </g>
        <g transform="matrix(12,0,0,12,696.652,438.293)">
            <path d="M0.483,-0.009C0.427,-0.018 0.388,-0.044 0.367,-0.086C0.377,-0.101 0.402,-0.117 0.441,-0.133C0.486,-0.151 0.513,-0.164 0.522,-0.17C0.52,-0.2 0.513,-0.218 0.502,-0.223L0.481,-0.221C0.441,-0.203 0.412,-0.189 0.394,-0.18C0.34,-0.155 0.279,-0.132 0.21,-0.109C0.169,-0.096 0.142,-0.084 0.126,-0.077C0.13,-0.077 0.125,-0.078 0.109,-0.08L0.103,-0.134C0.102,-0.141 0.105,-0.16 0.112,-0.194C0.119,-0.232 0.123,-0.255 0.123,-0.262C0.124,-0.295 0.125,-0.328 0.124,-0.36C0.142,-0.565 0.152,-0.689 0.154,-0.734C0.158,-0.818 0.159,-0.863 0.159,-0.868C0.156,-0.887 0.147,-0.9 0.132,-0.905C0.118,-0.895 0.11,-0.885 0.109,-0.875C0.106,-0.852 0.104,-0.83 0.103,-0.807C0.097,-0.692 0.094,-0.613 0.091,-0.569C0.086,-0.474 0.077,-0.385 0.065,-0.3L0.046,-0.162C0.036,-0.088 0.032,-0.046 0.033,-0.037C0.036,-0.013 0.05,-0.001 0.074,-0.001C0.078,-0.001 0.081,-0.001 0.085,-0.002C0.11,-0.009 0.135,-0.018 0.159,-0.027C0.214,-0.049 0.251,-0.064 0.27,-0.071C0.289,-0.049 0.303,-0.033 0.313,-0.021L0.365,0.02C0.39,0.04 0.408,0.05 0.418,0.049C0.431,0.048 0.445,0.04 0.46,0.029C0.477,0.016 0.485,0.003 0.483,-0.009Z" style="fill-rule:nonzero;"/>
        </g>
        <g transform="matrix(12,0,0,12,703.372,438.293)">
            <path d="M0.299,-0.221C0.292,-0.214 0.265,-0.191 0.216,-0.172C0.167,-0.154 0.137,-0.148 0.126,-0.148L0.095,-0.148C0.089,-0.152 0.086,-0.165 0.086,-0.174C0.086,-0.198 0.102,-0.218 0.133,-0.232C0.157,-0.243 0.183,-0.249 0.212,-0.249C0.252,-0.249 0.281,-0.239 0.299,-0.221ZM0.501,-0.026C0.495,-0.036 0.486,-0.045 0.473,-0.052C0.433,-0.058 0.413,-0.061 0.415,-0.061L0.26,-0.061C0.247,-0.061 0.214,-0.06 0.183,-0.068C0.148,-0.077 0.12,-0.085 0.116,-0.092C0.123,-0.098 0.13,-0.097 0.13,-0.101C0.153,-0.099 0.211,-0.119 0.269,-0.139C0.331,-0.161 0.362,-0.181 0.362,-0.199C0.362,-0.232 0.349,-0.258 0.323,-0.277C0.297,-0.296 0.262,-0.306 0.218,-0.306C0.166,-0.306 0.123,-0.294 0.087,-0.272C0.045,-0.245 0.024,-0.207 0.024,-0.158C0.024,-0.135 0.028,-0.109 0.038,-0.082C0.046,-0.057 0.083,-0.038 0.147,-0.022C0.196,-0.011 0.241,-0.005 0.281,-0.005L0.453,-0.005C0.473,-0.005 0.489,-0.012 0.501,-0.026Z" style="fill-rule:nonzero;"/>
        </g>
    </g>
    <g transform="matrix(16.5973,0,0,16.5973,-4048.99,-3134.02)">
        <g transform="matrix(12,0,0,12,244.39,208.537)">
            <path d="M0.794,-0.023C0.794,-0.011 0.804,-0 0.817,-0C0.831,-0 0.841,-0.011 0.841,-0.023L0.841,-0.29C0.841,-0.4 0.752,-0.489 0.642,-0.489C0.567,-0.489 0.501,-0.447 0.466,-0.385C0.432,-0.447 0.367,-0.489 0.291,-0.489C0.23,-0.489 0.176,-0.462 0.14,-0.419L0.14,-0.466C0.14,-0.479 0.13,-0.489 0.116,-0.489C0.104,-0.489 0.093,-0.479 0.093,-0.466L0.093,-0.018C0.096,-0.009 0.104,-0.001 0.113,-0L0.119,-0C0.121,0.001 0.122,0.001 0.123,-0C0.125,-0 0.128,-0.002 0.129,-0.003C0.136,-0.007 0.14,-0.014 0.14,-0.022L0.14,-0.29C0.14,-0.373 0.207,-0.442 0.291,-0.442C0.375,-0.442 0.442,-0.373 0.442,-0.29L0.442,-0.018C0.443,-0.017 0.443,-0.016 0.443,-0.015C0.444,-0.014 0.444,-0.013 0.444,-0.013C0.445,-0.012 0.445,-0.012 0.445,-0.011C0.446,-0.011 0.446,-0.01 0.447,-0.009L0.45,-0.006C0.451,-0.005 0.452,-0.004 0.453,-0.004C0.455,-0.002 0.457,-0 0.459,-0C0.459,-0.001 0.46,-0 0.461,-0L0.466,-0C0.47,-0 0.474,-0.001 0.478,-0.003C0.483,-0.006 0.488,-0.01 0.49,-0.016L0.49,-0.018C0.49,-0.018 0.491,-0.019 0.491,-0.02L0.491,-0.29C0.491,-0.373 0.559,-0.442 0.642,-0.442C0.726,-0.442 0.792,-0.373 0.794,-0.29L0.794,-0.023Z" style="fill-rule:nonzero;"/>
        </g>
        <g transform="matrix(12,0,0,12,255.802,208.537)">
            <path d="M0.07,-0.245C0.07,-0.112 0.174,-0 0.302,-0C0.431,-0 0.534,-0.112 0.534,-0.245C0.534,-0.378 0.431,-0.49 0.302,-0.49C0.174,-0.49 0.07,-0.378 0.07,-0.245ZM0.118,-0.245C0.118,-0.354 0.202,-0.443 0.302,-0.443C0.402,-0.443 0.486,-0.354 0.486,-0.245C0.486,-0.136 0.402,-0.048 0.302,-0.048C0.202,-0.048 0.118,-0.136 0.118,-0.245Z" style="fill-rule:nonzero;"/>
        </g>
        <g transform="matrix(12,0,0,12,263.302,208.537)">
            <path d="M0.485,-0.024C0.485,-0.011 0.496,-0 0.51,-0C0.523,-0 0.534,-0.011 0.534,-0.024L0.534,-0.676C0.534,-0.689 0.523,-0.7 0.51,-0.7C0.496,-0.7 0.485,-0.689 0.485,-0.676L0.485,-0.394C0.442,-0.452 0.374,-0.49 0.297,-0.49C0.165,-0.49 0.06,-0.38 0.06,-0.244C0.06,-0.11 0.165,-0 0.297,-0C0.374,-0 0.442,-0.037 0.485,-0.095L0.485,-0.024ZM0.297,-0.049C0.194,-0.049 0.109,-0.136 0.109,-0.244C0.109,-0.353 0.194,-0.441 0.297,-0.441C0.398,-0.441 0.481,-0.357 0.485,-0.252L0.485,-0.236C0.481,-0.132 0.398,-0.049 0.297,-0.049Z" style="fill-rule:nonzero;"/>
        </g>
        <g transform="matrix(12,0,0,12,271.042,208.537)">
            <path d="M0.296,-0C0.379,-0 0.452,-0.044 0.494,-0.111C0.501,-0.123 0.497,-0.137 0.486,-0.145C0.476,-0.151 0.461,-0.149 0.454,-0.137C0.421,-0.082 0.361,-0.048 0.296,-0.048C0.195,-0.048 0.111,-0.129 0.106,-0.236L0.508,-0.236C0.521,-0.236 0.532,-0.245 0.532,-0.258L0.532,-0.262C0.522,-0.39 0.422,-0.49 0.296,-0.49C0.164,-0.49 0.058,-0.38 0.058,-0.244C0.058,-0.11 0.164,-0 0.296,-0ZM0.296,-0.442C0.386,-0.442 0.464,-0.375 0.48,-0.283L0.109,-0.283C0.127,-0.376 0.204,-0.442 0.296,-0.442Z" style="fill-rule:nonzero;"/>
        </g>
        <g transform="matrix(12,0,0,12,278.35,208.537)">
            <path d="M0.1,-0.024C0.1,-0.011 0.111,-0 0.124,-0C0.138,-0 0.149,-0.011 0.149,-0.024L0.149,-0.676C0.149,-0.689 0.138,-0.7 0.124,-0.7C0.111,-0.7 0.1,-0.689 0.1,-0.676L0.1,-0.024Z" style="fill-rule:nonzero;"/>
        </g>
        <g transform="matrix(12,0,0,12,281.338,208.537)">
            <path d="M0.062,-0.07C0.102,-0.038 0.164,-0.001 0.243,-0C0.291,-0 0.331,-0.014 0.365,-0.039C0.398,-0.064 0.421,-0.097 0.421,-0.138C0.421,-0.179 0.398,-0.217 0.366,-0.238C0.332,-0.257 0.294,-0.271 0.247,-0.278L0.245,-0.278C0.2,-0.285 0.167,-0.297 0.145,-0.312C0.126,-0.327 0.117,-0.341 0.117,-0.361C0.117,-0.381 0.128,-0.401 0.148,-0.417C0.169,-0.434 0.201,-0.445 0.241,-0.445C0.289,-0.445 0.325,-0.42 0.361,-0.396C0.372,-0.389 0.387,-0.392 0.394,-0.403C0.401,-0.414 0.398,-0.429 0.387,-0.437C0.349,-0.461 0.304,-0.49 0.241,-0.49C0.191,-0.49 0.15,-0.477 0.121,-0.457C0.09,-0.434 0.068,-0.4 0.068,-0.361C0.068,-0.323 0.09,-0.291 0.121,-0.273C0.149,-0.253 0.188,-0.243 0.232,-0.235L0.234,-0.234C0.282,-0.226 0.317,-0.214 0.338,-0.198C0.363,-0.177 0.372,-0.161 0.373,-0.138C0.373,-0.116 0.36,-0.094 0.336,-0.078C0.314,-0.06 0.281,-0.048 0.243,-0.048C0.181,-0.048 0.127,-0.08 0.093,-0.105C0.082,-0.114 0.067,-0.112 0.059,-0.102C0.051,-0.092 0.052,-0.079 0.062,-0.07Z" style="fill-rule:nonzero;"/>
        </g>
        <g transform="matrix(12,0,0,12,290.842,208.537)">
            <path d="M0.093,-0.024C0.093,-0.011 0.104,-0 0.117,-0C0.131,-0 0.142,-0.011 0.142,-0.024L0.142,-0.095C0.185,-0.037 0.253,-0 0.33,-0C0.462,-0 0.567,-0.11 0.567,-0.244C0.567,-0.38 0.462,-0.49 0.33,-0.49C0.253,-0.49 0.185,-0.452 0.142,-0.394L0.142,-0.676C0.142,-0.689 0.131,-0.7 0.117,-0.7C0.104,-0.7 0.093,-0.689 0.093,-0.676L0.093,-0.024ZM0.142,-0.252C0.146,-0.357 0.229,-0.441 0.33,-0.441C0.434,-0.441 0.518,-0.353 0.518,-0.244C0.518,-0.136 0.434,-0.049 0.33,-0.049C0.227,-0.049 0.142,-0.136 0.142,-0.244L0.142,-0.252Z" style="fill-rule:nonzero;"/>
        </g>
        <g transform="matrix(12,0,0,12,298.462,208.537)">
            <path d="M0.052,-0.2C0.052,-0.09 0.141,-0.001 0.25,-0C0.311,-0 0.365,-0.028 0.402,-0.07L0.402,-0.038C0.401,0.063 0.319,0.143 0.217,0.143C0.189,0.143 0.161,0.136 0.137,0.124C0.125,0.121 0.112,0.124 0.106,0.136C0.1,0.147 0.105,0.161 0.116,0.168C0.147,0.182 0.181,0.191 0.217,0.191C0.346,0.191 0.45,0.089 0.45,-0.038L0.45,-0.467C0.45,-0.47 0.449,-0.474 0.447,-0.477C0.446,-0.48 0.443,-0.483 0.441,-0.485C0.437,-0.487 0.433,-0.489 0.429,-0.49L0.423,-0.49C0.422,-0.49 0.421,-0.489 0.42,-0.489L0.418,-0.489C0.415,-0.488 0.411,-0.486 0.409,-0.483C0.408,-0.483 0.408,-0.482 0.407,-0.482C0.407,-0.481 0.406,-0.48 0.406,-0.479C0.403,-0.476 0.402,-0.471 0.402,-0.467L0.402,-0.2C0.401,-0.116 0.334,-0.049 0.25,-0.049C0.167,-0.049 0.1,-0.116 0.1,-0.2L0.1,-0.467C0.1,-0.48 0.089,-0.49 0.075,-0.49C0.063,-0.49 0.052,-0.48 0.052,-0.467L0.052,-0.2Z" style="fill-rule:nonzero;"/>
        </g>
    </g>
</svg>
